<?xml version="1.0" encoding="UTF-8"?>
<svg version="1.1" xmlns="http://www.w3.org/2000/svg" width="555" height="555">
<path d="M0 0 C6.21029598 4.31970772 10.88957468 10.07422099 15.55859375 15.953125 C18.26033215 19.32489452 21.05328694 22.60374269 23.875 25.875 C24.89990263 27.06626599 25.92464187 28.25767258 26.94921875 29.44921875 C27.45630371 30.03880371 27.96338867 30.62838867 28.48583984 31.23583984 C35.05775258 38.89282814 41.59033459 46.5878253 47.921875 54.4453125 C49.27692467 56.11110664 50.6614603 57.75346793 52.078125 59.3671875 C52.71234375 60.11226562 53.3465625 60.85734375 54 61.625 C54.556875 62.25664062 55.11375 62.88828125 55.6875 63.5390625 C59.68634708 71.03690077 57.51674602 78.71737664 55.51605225 86.54193115 C54.97469345 88.66158615 54.45235493 90.78523093 53.93408203 92.91064453 C53.33211298 95.37911196 52.7290339 97.84725776 52.12112427 100.31427002 C49.25925278 111.94321828 46.5571299 123.61006564 43.83374023 135.27203369 C42.86851338 139.40435145 41.90037666 143.53598415 40.93164062 147.66748047 C37.82455844 160.92019136 34.72364776 174.17431843 31.63583755 187.43153381 C31.16542933 189.45116297 30.69489586 191.47076291 30.22433472 193.49035645 C28.75848853 199.78210365 27.29388753 206.07413695 25.83154297 212.36669922 C22.75305223 225.59602052 19.60668362 238.80707328 16.40733337 252.00769043 C14.38039617 260.38483253 12.42468708 268.7720593 10.5625 277.1875 C9.97909592 279.79455586 9.39485529 282.40140002 8.80859375 285.0078125 C8.58762024 285.99029716 8.58762024 285.99029716 8.36218262 286.99263 C5.69406703 298.82118503 2.88046487 310.61646348 0.08544922 322.41552734 C-0.87521081 326.47126889 -1.83318411 330.52764102 -2.79058838 334.58415222 C-3.60028231 338.01432445 -4.41078327 341.44430563 -5.22149658 344.87423706 C-5.60950678 346.51605755 -5.99733022 348.1579222 -6.38494873 349.79983521 C-6.92902503 352.10372247 -7.4739861 354.40739763 -8.01953125 356.7109375 C-8.19050323 357.43348221 -8.36147522 358.15602692 -8.53762817 358.90046692 C-9.55533769 363.18363888 -10.61686351 367.45330455 -11.70703125 371.71875 C-12.66568868 375.51494223 -13.4096833 379.23222862 -13.875 383.125 C-14.98764235 389.86266758 -16.63155405 396.07618892 -21.953125 400.6953125 C-30.08119626 405.53345016 -40.01043863 405.08225752 -49.19897461 404.97412109 C-54.68830658 404.91305534 -59.98947064 405.35800192 -65.4375 406 C-72.75125392 406.79933596 -79.90906507 407.13058691 -87.26147461 407.03344727 C-97.58964315 406.9137103 -107.98652834 407.37302481 -118.25 408.5625 C-125.97028959 409.42182552 -134.45486397 409.88628401 -142 408 C-142 402.72 -142 397.44 -142 392 C-141.34 392 -140.68 392 -140 392 C-140 389.36 -140 386.72 -140 384 C-139.34 384 -138.68 384 -138 384 C-138 382.02 -138 380.04 -138 378 C-137.34 378 -136.68 378 -136 378 C-136 375.36 -136 372.72 -136 370 C-135.34 370 -134.68 370 -134 370 C-134 368.02 -134 366.04 -134 364 C-133.34 364 -132.68 364 -132 364 C-132 361.36 -132 358.72 -132 356 C-131.34 356 -130.68 356 -130 356 C-130 354.02 -130 352.04 -130 350 C-129.34 350 -128.68 350 -128 350 C-128 347.36 -128 344.72 -128 342 C-127.34 342 -126.68 342 -126 342 C-126 340.02 -126 338.04 -126 336 C-125.34 336 -124.68 336 -124 336 C-124 334.02 -124 332.04 -124 330 C-123.34 330 -122.68 330 -122 330 C-122 327.36 -122 324.72 -122 322 C-121.34 322 -120.68 322 -120 322 C-120 320.02 -120 318.04 -120 316 C-119.34 316 -118.68 316 -118 316 C-118 313.36 -118 310.72 -118 308 C-117.34 308 -116.68 308 -116 308 C-116 306.02 -116 304.04 -116 302 C-115.34 302 -114.68 302 -114 302 C-114 299.36 -114 296.72 -114 294 C-113.34 294 -112.68 294 -112 294 C-112 292.02 -112 290.04 -112 288 C-111.34 288 -110.68 288 -110 288 C-110 285.36 -110 282.72 -110 280 C-109.34 280 -108.68 280 -108 280 C-108 277.36 -108 274.72 -108 272 C-107.34 272 -106.68 272 -106 272 C-106 270.02 -106 268.04 -106 266 C-105.34 266 -104.68 266 -104 266 C-104 264.02 -104 262.04 -104 260 C-103.34 260 -102.68 260 -102 260 C-102 258.02 -102 256.04 -102 254 C-101.34 254 -100.68 254 -100 254 C-100 251.36 -100 248.72 -100 246 C-99.34 246 -98.68 246 -98 246 C-98 243.36 -98 240.72 -98 238 C-97.34 238 -96.68 238 -96 238 C-96 236.02 -96 234.04 -96 232 C-95.34 232 -94.68 232 -94 232 C-94 229.36 -94 226.72 -94 224 C-93.34 224 -92.68 224 -92 224 C-92 222.02 -92 220.04 -92 218 C-91.34 218 -90.68 218 -90 218 C-90 215.36 -90 212.72 -90 210 C-89.34 210 -88.68 210 -88 210 C-88 208.02 -88 206.04 -88 204 C-87.34 204 -86.68 204 -86 204 C-86 201.36 -86 198.72 -86 196 C-85.34 196 -84.68 196 -84 196 C-84 194.02 -84 192.04 -84 190 C-83.34 190 -82.68 190 -82 190 C-82 188.02 -82 186.04 -82 184 C-81.34 184 -80.68 184 -80 184 C-80 181.36 -80 178.72 -80 176 C-79.34 176 -78.68 176 -78 176 C-78 174.02 -78 172.04 -78 170 C-77.34 170 -76.68 170 -76 170 C-76 167.36 -76 164.72 -76 162 C-75.34 162 -74.68 162 -74 162 C-74 160.02 -74 158.04 -74 156 C-73.34 156 -72.68 156 -72 156 C-72 153.36 -72 150.72 -72 148 C-71.34 148 -70.68 148 -70 148 C-70 145.36 -70 142.72 -70 140 C-69.34 140 -68.68 140 -68 140 C-68 138.02 -68 136.04 -68 134 C-67.34 134 -66.68 134 -66 134 C-66 132.02 -66 130.04 -66 128 C-65.34 128 -64.68 128 -64 128 C-64 125.36 -64 122.72 -64 120 C-63.34 120 -62.68 120 -62 120 C-62 118.02 -62 116.04 -62 114 C-61.34 114 -60.68 114 -60 114 C-60 111.36 -60 108.72 -60 106 C-59.34 106 -58.68 106 -58 106 C-58 104.02 -58 102.04 -58 100 C-57.34 100 -56.68 100 -56 100 C-56 97.36 -56 94.72 -56 92 C-55.34 92 -54.68 92 -54 92 C-54 90.02 -54 88.04 -54 86 C-53.34 86 -52.68 86 -52 86 C-52 83.36 -52 80.72 -52 78 C-51.34 78 -50.68 78 -50 78 C-50 76.02 -50 74.04 -50 72 C-49.34 72 -48.68 72 -48 72 C-48 70.02 -48 68.04 -48 66 C-47.34 66 -46.68 66 -46 66 C-46 63.36 -46 60.72 -46 58 C-45.34 58 -44.68 58 -44 58 C-44 56.02 -44 54.04 -44 52 C-43.34 52 -42.68 52 -42 52 C-42 50.02 -42 48.04 -42 46 C-41.34 46 -40.68 46 -40 46 C-40 44.02 -40 42.04 -40 40 C-39.34 40 -38.68 40 -38 40 C-38 38.68 -38 37.36 -38 36 C-37.34 36 -36.68 36 -36 36 C-36 34.02 -36 32.04 -36 30 C-35.34 30 -34.68 30 -34 30 C-34 28.68 -34 27.36 -34 26 C-33.34 26 -32.68 26 -32 26 C-32 24.68 -32 23.36 -32 22 C-31.34 22 -30.68 22 -30 22 C-30 20.68 -30 19.36 -30 18 C-29.34 18 -28.68 18 -28 18 C-28 17.34 -28 16.68 -28 16 C-27.34 16 -26.68 16 -26 16 C-26 14.68 -26 13.36 -26 12 C-25.34 12 -24.68 12 -24 12 C-24 11.34 -24 10.68 -24 10 C-23.34 10 -22.68 10 -22 10 C-22 9.34 -22 8.68 -22 8 C-21.34 8 -20.68 8 -20 8 C-20 7.34 -20 6.68 -20 6 C-19.34 6 -18.68 6 -18 6 C-18 5.34 -18 4.68 -18 4 C-17.34 4 -16.68 4 -16 4 C-16 3.34 -16 2.68 -16 2 C-10.43659275 -0.23293216 -5.90400699 -2.00314523 0 0 Z " fill="#0085F0" transform="translate(168,99)"/>
<path d="M0 0 C0 0.66 0 1.32 0 2 C1.32 2 2.64 2 4 2 C4 2.66 4 3.32 4 4 C4.66 4 5.32 4 6 4 C6 4.66 6 5.32 6 6 C6.66 6 7.32 6 8 6 C8 6.66 8 7.32 8 8 C8.66 8 9.32 8 10 8 C11.2013569 17.22708845 11.2013569 17.22708845 8.7109375 20.90234375 C6.56880041 22.7664588 4.32717567 24.37131776 2 26 C0.31752025 27.30031128 -1.34664328 28.62219101 -3.01123047 29.9453125 C-4.82894853 31.38805538 -6.65746867 32.81611162 -8.48828125 34.2421875 C-11.52795818 36.61906538 -14.5222857 39.04569486 -17.5 41.5 C-25.43722094 48.03240307 -33.55414306 54.33947192 -41.6875 60.625 C-44.92203374 63.13280609 -48.09207764 65.70891797 -51.25 68.3125 C-55.70012941 71.97259256 -60.23459153 75.50094395 -64.81811523 78.99194336 C-69.82637791 82.82574397 -74.71387269 86.80079562 -79.56518555 90.83105469 C-80.82965151 91.87124796 -82.1157555 92.88548779 -83.41810608 93.87783813 C-85.40271411 95.50906684 -87.0666613 97.09442052 -88.82928467 98.93667603 C-99.99804296 109.75321799 -112.35125997 109.64245066 -127.11988747 109.43072164 C-128.61193658 109.40408917 -130.10397161 109.37665667 -131.59599185 109.34845352 C-135.44863657 109.28757003 -139.30126698 109.29298901 -143.15431213 109.28979492 C-149.61269519 109.27510782 -156.06935623 109.21565488 -162.52709961 109.125 C-170.79448788 109.00917091 -179.06050055 108.96805888 -187.32861233 108.95027161 C-194.47537685 108.93431207 -201.62184762 108.88434814 -208.76839948 108.82888412 C-211.04894096 108.81256906 -213.32947239 108.8008268 -215.61004448 108.78970337 C-219.19994385 108.7700035 -222.78902876 108.72898352 -226.37852287 108.67195129 C-228.31000584 108.64549829 -230.24171858 108.63788237 -232.17337036 108.63098145 C-240.81777589 108.46182624 -247.18797793 107.09476002 -253.96875 101.58984375 C-254.8040625 100.71457031 -255.639375 99.83929688 -256.5 98.9375 C-257.19343506 98.21578613 -257.19343506 98.21578613 -257.90087891 97.47949219 C-261.67041374 93.49859369 -265.1442906 89.29278214 -268.5625 85.0078125 C-271.42358901 81.47730202 -274.38848956 78.04941009 -277.375 74.625 C-281.9225418 69.40399237 -286.43581117 64.15802402 -290.89038086 58.85742188 C-293.3041112 55.98899466 -295.74042202 53.14397327 -298.2109375 50.32421875 C-298.74904053 49.70683838 -299.28714355 49.08945801 -299.84155273 48.45336914 C-300.87003936 47.27510138 -301.90307643 46.10078255 -302.94165039 44.93139648 C-306.97988352 40.29173905 -310.66871342 35.69761928 -311.4375 29.4375 C-310.81020126 24.50872421 -309.26694169 21.1859405 -305.6171875 17.76953125 C-294.80476488 10.05297323 -285.31462994 8.0510322 -272.19238281 7.55493164 C-271.30764534 7.51898077 -270.42290787 7.4830299 -269.51136017 7.44598961 C-266.4921079 7.32533657 -263.47265698 7.21108362 -260.453125 7.09765625 C-259.37392036 7.05611986 -258.29471573 7.01458347 -257.18280792 6.97178841 C-222.25407005 5.63363195 -187.31099598 4.68878798 -152.3714242 3.68557703 C-143.73008484 3.43732194 -135.08883702 3.18596653 -126.4475975 2.93426418 C-118.0007422 2.68823208 -109.55385193 2.44340827 -101.10695362 2.19885755 C-98.48234897 2.12284516 -95.85774777 2.04671426 -93.23314667 1.97057915 C-75.61287574 1.45998474 -57.99226507 0.96240374 -40.37063074 0.50096333 C-38.6960791 0.45700626 -37.02153806 0.41264307 -35.34700918 0.3678273 C-23.56295977 0.05342602 -11.78882123 -0.1379706 0 0 Z " fill="#00B8F8" transform="translate(490,53)"/>
<path d="M0 0 C3.87225379 1.9985826 6.39879849 3.65418473 8.05859375 7.80078125 C17.5562471 44.58988428 -3.53427654 87.48781062 -15.93383789 121.32714844 C-19.07264163 129.91384545 -21.96364213 138.5764559 -24.79418945 147.26928711 C-26.71441639 153.1246366 -28.76013876 158.91340274 -30.953125 164.671875 C-34.28002688 173.42286961 -37.21230139 182.29170732 -40.125 191.1875 C-43.21596113 200.62655346 -46.35357502 210.00139579 -49.98803711 219.24926758 C-50.88481965 221.54512054 -51.73537002 223.84497586 -52.546875 226.171875 C-57.76386629 240.92114667 -65.23398066 261.58574033 -80.0625 269 C-83.09637265 270.1212138 -84.91082628 270.47986405 -87.9375 269.21875 C-95.47385699 264.86179361 -101.16461867 258.21272515 -106.6796875 251.59765625 C-107.99767088 250.07490144 -109.43503578 248.65796501 -110.875 247.25 C-113.0625 245 -113.0625 245 -114.0625 242 C-114.7225 242 -115.3825 242 -116.0625 242 C-117.68359375 240.35546875 -117.68359375 240.35546875 -119.5 238.1875 C-122.03589332 235.17536735 -122.03589332 235.17536735 -124.78515625 232.36328125 C-126.0625 231 -126.0625 231 -126.0625 229 C-126.7225 229 -127.3825 229 -128.0625 229 C-129.5078125 227.53125 -129.5078125 227.53125 -131.1875 225.5 C-133.76112808 222.46430091 -136.40927277 219.60012953 -139.25 216.8125 C-147.84622399 208.3162321 -147.84622399 208.3162321 -148.25 202.125 C-148.1878028 196.36553924 -147.01652193 190.66450521 -146.0625 185 C-145.4025 185 -144.7425 185 -144.0625 185 C-144.0625 183.02 -144.0625 181.04 -144.0625 179 C-143.4025 179 -142.7425 179 -142.0625 179 C-142.0625 177.02 -142.0625 175.04 -142.0625 173 C-141.4025 173 -140.7425 173 -140.0625 173 C-140.0625 171.02 -140.0625 169.04 -140.0625 167 C-139.4025 167 -138.7425 167 -138.0625 167 C-138.0625 165.02 -138.0625 163.04 -138.0625 161 C-137.4025 161 -136.7425 161 -136.0625 161 C-136.0625 158.36 -136.0625 155.72 -136.0625 153 C-135.4025 153 -134.7425 153 -134.0625 153 C-134.0625 151.02 -134.0625 149.04 -134.0625 147 C-133.4025 147 -132.7425 147 -132.0625 147 C-132.0625 145.02 -132.0625 143.04 -132.0625 141 C-131.4025 141 -130.7425 141 -130.0625 141 C-130.0625 139.02 -130.0625 137.04 -130.0625 135 C-129.4025 135 -128.7425 135 -128.0625 135 C-128.0625 133.02 -128.0625 131.04 -128.0625 129 C-127.4025 129 -126.7425 129 -126.0625 129 C-126.0625 127.02 -126.0625 125.04 -126.0625 123 C-125.4025 123 -124.7425 123 -124.0625 123 C-124.0625 121.02 -124.0625 119.04 -124.0625 117 C-123.4025 117 -122.7425 117 -122.0625 117 C-122.0625 115.02 -122.0625 113.04 -122.0625 111 C-121.4025 111 -120.7425 111 -120.0625 111 C-120.0625 109.02 -120.0625 107.04 -120.0625 105 C-119.4025 105 -118.7425 105 -118.0625 105 C-117.8459375 103.9171875 -117.8459375 103.9171875 -117.625 102.8125 C-117.10416667 100.20833333 -116.58333333 97.60416667 -116.0625 95 C-115.4025 95 -114.7425 95 -114.0625 95 C-114.248125 93.9790625 -114.248125 93.9790625 -114.4375 92.9375 C-113.64224547 86.70800615 -108.24223217 83.03640193 -103.54980469 79.39941406 C-101.8464235 78.1032552 -100.1355087 76.8177236 -98.421875 75.53515625 C-95.42234942 73.28891675 -92.51330281 70.95090425 -89.625 68.5625 C-85.58684244 65.23043646 -81.50074602 61.97204963 -77.375 58.75 C-72.117588 54.6423275 -66.91999877 50.46712078 -61.75 46.25 C-56.24265304 41.75881204 -50.69882525 37.32887358 -45.0625 33 C-43.56179019 31.83424651 -42.06180735 30.66755667 -40.5625 29.5 C-38.33922971 27.76908022 -36.11464419 26.0401828 -33.8828125 24.3203125 C-28.59995152 20.24066541 -23.45256286 16.02341442 -18.34765625 11.72265625 C-16.0625 10 -16.0625 10 -14.0625 10 C-13.7325 9.01 -13.4025 8.02 -13.0625 7 C-10.875 5.5625 -10.875 5.5625 -8.0625 4 C-6.5465625 2.88625 -6.5465625 2.88625 -5 1.75 C-2.0625 0 -2.0625 0 0 0 Z " fill="#009DF4" transform="translate(510.0625,84)"/>
<path d="M0 0 C0.6904541 -0.00175232 1.3809082 -0.00350464 2.09228516 -0.00531006 C4.38414002 -0.00971979 6.67591771 -0.00678467 8.96777344 -0.00341797 C10.58933527 -0.00409338 12.21089701 -0.00506538 13.8324585 -0.00631714 C17.25224764 -0.00779466 20.67201076 -0.00564562 24.09179688 -0.00097656 C28.37194234 0.00459551 32.65202401 0.00141332 36.93216705 -0.00439835 C52.87804879 -0.0229702 68.82318221 0.01963033 84.76403046 0.45633316 C86.73158962 0.51002572 88.69932184 0.5572585 90.66705322 0.60421753 C112.26655339 1.2904541 112.26655339 1.2904541 118.57714844 6.94189453 C119.73730469 7.9415625 119.73730469 7.9415625 120.92089844 8.96142578 C123.17217162 11.22493414 125.11276951 13.61548162 127.07714844 16.12939453 C129.63118745 18.74892172 132.2445519 21.28935784 134.88964844 23.81689453 C137.07714844 26.12939453 137.07714844 26.12939453 137.07714844 28.12939453 C137.73714844 28.12939453 138.39714844 28.12939453 139.07714844 28.12939453 C139.07714844 28.78939453 139.07714844 29.44939453 139.07714844 30.12939453 C139.73714844 30.12939453 140.39714844 30.12939453 141.07714844 30.12939453 C141.07714844 30.78939453 141.07714844 31.44939453 141.07714844 32.12939453 C141.73714844 32.12939453 142.39714844 32.12939453 143.07714844 32.12939453 C144.52246094 33.59814453 144.52246094 33.59814453 146.20214844 35.62939453 C148.71972745 38.59616814 151.2988382 41.40513702 154.07714844 44.12939453 C157.32585851 47.33428771 160.37121393 50.65149377 163.34277344 54.11376953 C164.54628454 55.51244459 165.76631755 56.89700566 166.99902344 58.27001953 C167.93488281 59.31416016 167.93488281 59.31416016 168.88964844 60.37939453 C169.73462891 61.31525391 169.73462891 61.31525391 170.59667969 62.27001953 C173.20516988 65.54611803 174.10393206 67.37945302 173.95214844 71.62939453 C173.00798071 75.40606542 172.14374779 76.80621321 169.07714844 79.12939453 C168.41714844 79.12939453 167.75714844 79.12939453 167.07714844 79.12939453 C167.07714844 79.78939453 167.07714844 80.44939453 167.07714844 81.12939453 C150.4970043 89.27021817 136.03233076 92.27775974 117.66845703 92.29052734 C116.1105284 92.29516211 114.5526009 92.30018765 112.99467468 92.30557251 C108.78207039 92.31862729 104.56948197 92.32512681 100.35686064 92.32958317 C97.7228458 92.33252259 95.08883522 92.33662881 92.45482254 92.34108734 C84.20659481 92.35473843 75.95837692 92.36441911 67.71013868 92.36828923 C58.19995126 92.37277685 48.68990706 92.3903673 39.1797632 92.41928983 C31.81735801 92.44090193 24.45499317 92.45099311 17.0925566 92.45233035 C12.69936768 92.45337788 8.30631385 92.45927578 3.91315842 92.47714996 C-0.21554061 92.49362452 -4.34400282 92.49578923 -8.47272301 92.48701096 C-9.98601987 92.48624049 -11.49932945 92.49058456 -13.01259422 92.50046921 C-15.08164511 92.51319037 -17.1498571 92.50731218 -19.21890259 92.49688721 C-20.37550196 92.49835377 -21.53210133 92.49982033 -22.72374916 92.50133133 C-26.3952036 92.07447753 -28.78176248 91.05527015 -31.92285156 89.12939453 C-36.17180844 82.82449078 -34.87346834 76.39098444 -33.92285156 69.12939453 C-32.87653221 63.83048258 -31.57475673 58.6094637 -30.23535156 53.37939453 C-29.87276138 51.93393009 -29.5112029 50.48820649 -29.15063477 49.04223633 C-28.60432461 46.85237798 -28.05718234 44.66276524 -27.50584412 42.47416687 C-26.34741432 37.87043147 -25.23776574 33.2579585 -24.16503906 28.63330078 C-23.90037842 27.49666992 -23.63571777 26.36003906 -23.36303711 25.18896484 C-22.87509781 23.0840045 -22.39189082 20.97793937 -21.91430664 18.87060547 C-19.09413618 6.8387037 -19.09413618 6.8387037 -13.98535156 2.81689453 C-9.17609801 0.16689768 -5.48558306 0.00350621 0 0 Z " fill="#017DEF" transform="translate(236.9228515625,296.87060546875)"/>
</svg>
